<?xml version="1.0" encoding="utf-8"?>
<!-- Generator: Adobe Illustrator 16.0.0, SVG Export Plug-In . SVG Version: 6.00 Build 0)  -->
<!DOCTYPE svg PUBLIC "-//W3C//DTD SVG 1.1//EN" "http://www.w3.org/Graphics/SVG/1.1/DTD/svg11.dtd">
<svg version="1.1" id="Layer_1" xmlns="http://www.w3.org/2000/svg" xmlns:xlink="http://www.w3.org/1999/xlink" x="0px" y="0px"
	 width="85.039px" height="93.543px" viewBox="0 0 85.039 93.543" enable-background="new 0 0 85.039 93.543" xml:space="preserve">
<g>
	<defs>
		<rect id="SVGID_1_" y="0" width="85.039" height="93.543"/>
	</defs>
	<clipPath id="SVGID_2_">
		<use xlink:href="#SVGID_1_"  overflow="visible"/>
	</clipPath>
	<path clip-path="url(#SVGID_2_)" fill="#164194" d="M34.001,50.97c-0.111-0.061-0.254-0.099-0.408-0.099
		c-0.363,0-0.66,0.213-0.66,0.485c0,0.027,0.006,0.061,0.013,0.09L34.001,50.97z"/>
	<path clip-path="url(#SVGID_2_)" fill="#164194" d="M30.476,52.266c0,0,0.65,0.729,0.721,1.613c0.069,0.886-0.7,1.8,1.464,4.029
		c2.155,2.224,1.711,3.495,1.711,3.495s-0.162,1.146-0.654,1.54c-0.492,0.39-1.176,2.125-7.233,4.225
		c-6.055,2.089-7.766,0.992-9.19,0c-0.595-0.42-0.463-1.313-0.463-1.313s-0.433-0.306-0.488-0.686
		c-0.06-0.381-0.035-1.441,0.653-2.749c0.689-1.309,2.126-3.776,6.71-6.564c0,0,2.975-2.073,3.764-2.698
		C28.253,52.541,29.991,51.714,30.476,52.266"/>
	<path clip-path="url(#SVGID_2_)" fill="#164194" d="M42.169,44.308c0,0,1.53-2.509,5.608-2.947
		c4.075-0.435,3.995-0.097,4.493,0.145c0.501,0.242,2.303,1.478,2.656,1.692c1.146,0.693,3.324,1.127,3.288,1.291
		c-0.032,0.156-2.479-0.068-2.848,0c-0.373,0.063-0.938,0.336-0.888,1.142c0.048,0.808,0.096,1.404-0.082,1.404
		c-0.625,0-0.66-1.725-0.836-2.162c-0.178-0.435-0.694-1.53-1.112-1.82c-0.421-0.287-1.015-0.402-1.015-0.402
		s-0.035,0.225,0.239,0.789c0.276,0.565,0.419,0.934,0.293,1.012c-0.131,0.085-0.969-0.721-1.227-0.769c0,0-0.5-0.559-1.373-0.514
		c-0.869,0.041-2.726,0.109-3.618,1.329c-0.894,1.223-1.717,3.792-1.871,3.949c-0.153,0.151-1.358-1.683-1.597-2.074
		C42.04,45.981,41.76,44.832,42.169,44.308"/>
	<path clip-path="url(#SVGID_2_)" fill="#164194" d="M45.56,51.237c0,0,1.482,0.983,3.188,0.983c1.698,0,5.059-0.565,5.167-1.595
		c0.112-1.019-0.151-2.397,0.112-2.374c0.263,0.021,0.893,2.396,2.44,2.396c1.551,0,1.809,0,2.227-0.415
		c0.412-0.412,1.482-2.421,1.723-2.222c0.237,0.193-0.937,2.854-2.05,3.622c-1.116,0.762-4.801,2.005-6.021,2.484
		c-1.221,0.478-4.275,0.869-5.498,0.567c-1.218-0.305-0.283-1.003-0.982-1.417C45.169,52.851,45.147,51.22,45.56,51.237"/>
	<path clip-path="url(#SVGID_2_)" fill="#164194" d="M46.076,54.401c-0.148-0.2-0.042-0.362-0.206-0.601
		c-0.163-0.242-0.741-0.658-0.959-1.16c-0.219-0.499,0-1.088,0.251-1.414c0.246-0.331,0.884-0.265,0.948-0.391
		c0.066-0.132-0.044-0.376-0.327-0.573c-0.283-0.194-0.37-1.2-0.48-1.332c-0.109-0.126-0.219,0.22-0.828,0.132
		c-0.61-0.084-0.852-0.521-1.265-0.926c-0.417-0.405-1.381-2.186-1.468-2.536c-0.038-0.152-0.159-0.319-0.115-0.549
		c0.06-0.293-0.153-0.711-0.317-0.809c0,0-0.16,1.075-0.179,1.293c-0.015,0.208,0.23,1.733,1.08,2.726
		c0.85,1.002,1.338,1.328,1.421,1.915s0.164,2.225,0.478,2.553c0.311,0.328,0.824,0.72,1.052,0.901
		C45.389,53.811,46.076,54.401,46.076,54.401"/>
	<path clip-path="url(#SVGID_2_)" fill="#164194" d="M42.593,56.917c0.038,0.081,2.285,0.087,2.439-0.084
		c0.176-0.193,0.331-0.588,0.785-0.85c0.458-0.261,0.699-0.393,0.784-0.673c0.089-0.288-0.445-0.625-0.591-0.831
		c0,0-0.631,0.259-0.791,0.349c-0.165,0.088-0.843,0.62-1.089,0.859c-0.255,0.243-0.715,0.768-0.908,0.917
		C43.223,56.605,42.551,56.836,42.593,56.917"/>
	<path clip-path="url(#SVGID_2_)" fill="#164194" d="M45.955,54.387c0,0-0.947-0.595-1.176-0.777
		c-0.224-0.179-0.739-0.571-1.051-0.899c-0.312-0.324-0.394-1.96-0.475-2.551c-0.081-0.586-0.57-0.912-1.423-1.912
		c-0.852-0.999-0.836-2.392-0.813-2.603c0.013-0.21,0.187-1.397,0.187-1.397c-0.284-0.168-0.773-0.213-1.031-0.259
		c-0.209-0.04-0.059,0.804-0.29,1.103c-0.23,0.295-0.622,0.589-1.765,0.751c-1.146,0.161-1.572,0.816-1.669,1.897
		c-0.1,1.079,0.427,1.731,0.427,1.731s1.724,1.639,2.271,2.547c0.55,0.907,0.228,1.796,0.457,2.369
		c0.229,0.571,1.082,1.281,1.426,1.534c0.344,0.249,0.8,0.654,1.372,0.698c0.574,0.053,0.691-0.145,0.691-0.145
		c0.192-0.153,0.648-0.678,0.902-0.915c0.25-0.241,0.923-0.776,1.091-0.861c0.164-0.088,0.791-0.343,0.791-0.343"/>
	<path clip-path="url(#SVGID_2_)" fill="#164194" d="M36.096,49.959c0,0-0.234,0.478-0.234,0.838c0,0.358,0.234,0.514,0.806,1.079
		c0.565,0.572,0.61,0.938,0.74,1.595c0.131,0.653,0.227,2.026,1.811,3.275c0.914,0.713,1.505,0.391,1.505,0.391
		s0.021,0.521-1.138,1.352c-1.152,0.828-1.394,1.373-1.394,1.373s-0.391,0.784-1.679,0.61c-1.284-0.175-2.158-0.522-2.072-0.547
		c0.088-0.021-0.48-0.497-1.003-1.961c-0.524-1.461-1.219-2.115-1.219-2.115s-0.483-1.299-0.613-1.912
		c-0.132-0.619-0.635-1.185-0.635-1.185s-0.499-0.787,0.721-0.852c1.222-0.062,3.798-1.569,3.798-1.569L36.096,49.959z"/>
	<path clip-path="url(#SVGID_2_)" fill="#164194" d="M40.627,55.999c-0.147-0.112-1.046-0.853-1.275-1.422
		c-0.229-0.571,0.089-1.458-0.452-2.367c-0.552-0.912-2.124-2.468-2.192-2.47c0,0-0.211-0.004-0.256,0.095
		c-0.049,0.103-0.241,0.481-0.241,0.84c0,0.36,0.241,0.512,0.805,1.084c0.572,0.565,0.612,0.932,0.743,1.59
		c0.129,0.653,0.225,2.025,1.81,3.271c0.916,0.722,1.341,0.438,1.537,0.415c0.195-0.026,0.81-0.129,0.793-0.227
		C41.884,56.71,40.775,56.113,40.627,55.999"/>
	<path clip-path="url(#SVGID_2_)" fill="none" stroke="#164194" stroke-width="0.3" stroke-miterlimit="10" d="M35.505,42.472
		c0,0-0.4,0.293-0.38,0.871c0,0-0.109,0.263,1.441,1.117l0.032,0.023l1.732,1.427"/>
	<path clip-path="url(#SVGID_2_)" fill="none" stroke="#164194" stroke-width="0.3" stroke-miterlimit="10" d="M35.844,42.875
		c0,0-0.381,0.625-0.403,0.803"/>
	<path clip-path="url(#SVGID_2_)" fill="none" stroke="#164194" stroke-width="0.3" stroke-miterlimit="10" d="M36.004,43.036
		c0,0-0.383,0.621-0.404,0.797"/>
	<path clip-path="url(#SVGID_2_)" fill="none" stroke="#164194" stroke-width="0.3" stroke-miterlimit="10" d="M36.184,43.15
		c0,0-0.382,0.629-0.4,0.804"/>
	<path clip-path="url(#SVGID_2_)" fill="none" stroke="#164194" stroke-width="0.3" stroke-miterlimit="10" d="M35.693,42.73
		c0,0-0.37,0.504-0.409,0.818"/>
	<path clip-path="url(#SVGID_2_)" fill="none" stroke="#164194" stroke-width="0.3" stroke-miterlimit="10" d="M44.442,48.923
		c0,0-0.029-1.099,0.18-1.421c0.212-0.329,0.133-0.314,0.851-0.082c0.716,0.223,1.687,1.503,1.687,1.503"/>
	<path clip-path="url(#SVGID_2_)" fill="none" stroke="#164194" stroke-width="0.3" stroke-miterlimit="10" d="M47.305,50.932
		c0,0,0.916,1.017,0.967,1.334"/>
	<path clip-path="url(#SVGID_2_)" fill="none" stroke="#164194" stroke-width="0.3" stroke-miterlimit="10" d="M52.624,62.555
		c0,0-0.308,0.395-0.888,0.357c0,0-0.268,0.103-1.062-1.473l-0.248-0.29c0,0-0.566-0.564-0.957-1.288
		c-0.395-0.719-0.59-1.415-1.322-2.639c-0.725-1.219-1.533-1.633-1.533-1.633"/>
	<path clip-path="url(#SVGID_2_)" fill="none" stroke="#164194" stroke-width="0.3" stroke-miterlimit="10" d="M52.229,62.206
		c0,0-0.641,0.363-0.815,0.379"/>
	<path clip-path="url(#SVGID_2_)" fill="none" stroke="#164194" stroke-width="0.3" stroke-miterlimit="10" d="M52.077,62.044
		c0,0-0.64,0.361-0.812,0.377"/>
	<path clip-path="url(#SVGID_2_)" fill="none" stroke="#164194" stroke-width="0.3" stroke-miterlimit="10" d="M51.965,61.861
		c0,0-0.638,0.361-0.812,0.376"/>
	<path clip-path="url(#SVGID_2_)" fill="none" stroke="#164194" stroke-width="0.3" stroke-miterlimit="10" d="M52.367,62.362
		c0,0-0.515,0.359-0.828,0.385"/>
	<path clip-path="url(#SVGID_2_)" fill="#164194" d="M37.874,60.665l4.757,4.182c0,0,0.078-0.504,0.173-0.659
		c0.098-0.157,0.327-0.225,0.391-0.256c0.177-0.089-0.217-0.521-0.217-0.521L38.581,59.7c0,0-0.339-0.112-0.519,0.069
		C37.884,59.947,37.643,60.458,37.874,60.665"/>
	<path clip-path="url(#SVGID_2_)" fill="#164194" d="M42.65,64.737c0,0,3.265,0.841,4.016,1.071l1.941,0.23
		c0,0,0.831,0.523,1.018,0.747c0.192,0.232,0-0.717,0-0.717s-0.154-0.854,0-1.391c0.162-0.541-0.526,0.168-0.526,0.168
		s-0.192,0.308-1.738,0.146c-1.534-0.164-4.118-0.885-4.165-1.061"/>
	<path clip-path="url(#SVGID_2_)" fill="#164194" d="M27.69,66.848c0,0,0.563,1.075,0.696,1.063c0,0,0.29-0.97,0.819-0.183
		c0.521,0.782,0.066-1.561,0.066-1.561C29.007,66.409,27.69,66.848,27.69,66.848"/>
	<path clip-path="url(#SVGID_2_)" fill="#164194" d="M29.382,67.849c-1.261,3.589-2.075,7.926-2.075,7.926l-0.155,0.44
		c-0.056-0.317-0.458-0.269-0.458-0.269s0.542-2.378,0.658-3.392c0.324-2.821,1.035-4.644,1.035-4.644"/>
	<path clip-path="url(#SVGID_2_)" fill="#164194" d="M33.944,62.917c0,0,0.119,0.083,0.308,1.84c0.183,1.77,0.349,1.938,0.349,1.938
		s0.169-0.315,0.53-0.396c0.363-0.083,0.615,0.134,0.615,0.134c0.458,0.263-0.362-0.296-0.557-2.456
		c-0.196-2.161-0.683-2.745-0.683-2.745C34.449,62.203,33.944,62.917,33.944,62.917"/>
	<path clip-path="url(#SVGID_2_)" fill="#164194" d="M34.602,66.695c0,0,0.537,3.726,1.102,5.367
		c0.567,1.641,0.179,2.188,0.179,2.188s0.553-0.292,0.735,0c0,0,0.242,0.021-0.152-1.245c-0.394-1.26-0.345-2.291-0.436-2.793
		c-0.085-0.496-0.121-0.719-0.246-1.397c-0.127-0.671-0.037-2.383-0.037-2.383"/>
	
		<path clip-path="url(#SVGID_2_)" fill="none" stroke="#FFFFFF" stroke-width="0.3" stroke-linecap="round" stroke-miterlimit="10" d="
		M30.084,56.983c-3.736,0-13.023,8.804-13.023,8.804"/>
	
		<path clip-path="url(#SVGID_2_)" fill="none" stroke="#FFFFFF" stroke-width="0.3" stroke-linecap="round" stroke-miterlimit="10" d="
		M30.572,55.575c0,0,0.168,0.659,0.684,1.528c0.202,0.337-1.108-0.106-1.108-0.106S30.148,55.841,30.572,55.575z"/>
	<path clip-path="url(#SVGID_2_)" fill="#164194" d="M22.362,56.538c0,0-1.012-0.757-1.251-0.474
		c-0.237,0.282-0.393,0.741-0.211,0.992c0.186,0.252,0.342,0.352,0.342,0.352L22.362,56.538z"/>
	<path clip-path="url(#SVGID_2_)" fill="#164194" d="M20.986,57.467c0,0-0.158-0.095-0.338-0.351
		c-0.182-0.251-0.028-0.712,0.209-0.993c0,0-0.904,1.019-0.934,1.167c-0.028,0.149-0.435,1.514-0.435,1.514l1.305-1.095
		L20.986,57.467z"/>
	<path clip-path="url(#SVGID_2_)" fill="#164194" d="M29.176,52.054c-0.088-0.036-0.181-0.061-0.283-0.064
		c-0.365-0.019-0.668,0.197-0.685,0.465c0,0,0.3-0.171,0.493-0.242C28.899,52.15,29.176,52.054,29.176,52.054"/>
	<path clip-path="url(#SVGID_2_)" fill="#164194" d="M13.732,65.274c0,0-1.211,0.186-0.795,1.675c0,0,0.09-0.674,0.272-1.02
		C13.393,65.583,13.732,65.274,13.732,65.274"/>
	<path clip-path="url(#SVGID_2_)" fill="#164194" d="M13.73,65.274c0,0-0.955,0.767,0.147,1.848c0,0-0.257-0.626-0.274-1.02
		C13.589,65.71,13.73,65.274,13.73,65.274"/>
	
		<path clip-path="url(#SVGID_2_)" fill="none" stroke="#FFFFFF" stroke-width="0.3" stroke-linecap="round" stroke-miterlimit="10" d="
		M47.299,53.638c0,0,4.561,0.21,8.614-1.917"/>
	<path clip-path="url(#SVGID_2_)" fill="#164194" d="M49.414,65.204c0,0,2.475,0.269,4.382,0.605
		c2.19,0.388,3.173,1.274,3.173,1.274l-0.373,0.264c0,0-0.081-0.456-2.138-0.961c-1.957-0.481-5.029-0.659-5.044-0.674
		c-0.018-0.017,0.299-0.123,0.299-0.242S49.414,65.204,49.414,65.204"/>
	<path clip-path="url(#SVGID_2_)" fill="#164194" d="M36.517,74.315c0.064,0.194,0.822,2.433,1.456,2.897
		c1.396,1.023,1.971,1.56,2.35,1.871c0.377,0.309,0.058,0.492,0.058,0.492s-1.219-1.055-2.201-1.677
		c-1.079-0.688-2.201-3.128-2.208-3.544C35.972,74.355,36.453,74.119,36.517,74.315"/>
	<path clip-path="url(#SVGID_2_)" fill="#164194" d="M27.175,76.302c0,0-0.899,1.088-2.143,1.283
		c-1.241,0.197-2.861,0.182-3.786,0.343c-0.827,0.146-1.634,0.81-1.634,0.81l-0.194-0.169c0,0,1.073-0.808,1.772-0.917
		c0.697-0.109,2.839-0.164,3.842-0.489c1.003-0.328,1.662-1.064,1.662-1.064s0.137-0.021,0.268,0.037
		C27.092,76.191,27.175,76.302,27.175,76.302"/>
	<path clip-path="url(#SVGID_2_)" fill="#164194" d="M17.248,62.77c0,0-1.896,0.835-2.438,1.193
		c-0.538,0.36-1.416,1.295-1.457,1.484c-0.021,0.093,0.127,0.011,0.26-0.011c0.131-0.024,0.092-0.011,0.092-0.011
		s0.638-0.805,1.303-1.215c0.705-0.434,2.24-1.114,2.24-1.114V62.77z"/>
	<path clip-path="url(#SVGID_2_)" fill="#164194" d="M19.836,78.417c0,0-1.33,0.205-0.875,1.841c0,0,0.099-0.739,0.3-1.12
		C19.462,78.755,19.836,78.417,19.836,78.417"/>
	<path clip-path="url(#SVGID_2_)" fill="#164194" d="M19.597,78.633c0,0-0.843,1.048,0.595,1.951c0,0-0.426-0.612-0.534-1.03
		C19.549,79.138,19.597,78.633,19.597,78.633"/>
	<path clip-path="url(#SVGID_2_)" fill="#164194" d="M40.262,79.333c0,0,0.445,0.22,0.483,0.624c0.042,0.415-0.434,0.991-1.135,1.52
		c0,0,0.682-0.991,0.689-1.467C40.305,79.63,40.262,79.333,40.262,79.333"/>
	<path clip-path="url(#SVGID_2_)" fill="#164194" d="M40.18,79.377c0,0,0.389-0.312,0.771-0.181
		c0.395,0.135,0.719,0.811,0.907,1.665c0,0-0.616-1.032-1.046-1.236C40.472,79.462,40.18,79.377,40.18,79.377"/>
	<path clip-path="url(#SVGID_2_)" fill="#164194" d="M56.683,67.241c0,0,0.239-0.435,0.644-0.459
		c0.415-0.026,0.975,0.475,1.475,1.196c0,0-0.965-0.722-1.438-0.747C56.982,67.209,56.683,67.241,56.683,67.241"/>
	<path clip-path="url(#SVGID_2_)" fill="#164194" d="M56.435,67.154c0,0,0.766,0.131,0.889,0.516c0.128,0.4,0.073,0.787-0.206,1.621
		c0,0-0.002-1.206-0.264-1.601C56.642,67.374,56.435,67.154,56.435,67.154"/>
	<polygon clip-path="url(#SVGID_2_)" fill="#E30613" points="27.725,17.631 36.392,17.631 36.392,19.902 30.387,19.902 
		30.387,25.828 35.008,25.828 35.008,28.151 30.387,28.151 30.387,34.547 36.835,34.547 36.835,36.87 27.725,36.87 	"/>
	<rect x="39.789" y="17.63" clip-path="url(#SVGID_2_)" fill="#E30613" width="2.664" height="19.239"/>
	<path clip-path="url(#SVGID_2_)" fill="#E30613" d="M47.942,30.579v1.775c0,1.749,0.731,2.741,2.063,2.741
		c1.174,0,1.826-0.861,1.826-2.427c0-1.384-0.652-2.533-2.532-4.438l-0.782-0.783c-1.566-1.593-3.028-3.342-3.028-6.161
		c0-2.35,1.723-3.943,4.385-3.943c2.663,0,4.151,1.515,4.151,4.256c0,0.365-0.026,0.601-0.078,1.227h-2.402v-0.914
		c0-1.697-0.574-2.506-1.775-2.506c-1.018,0-1.67,0.757-1.67,1.854c0,1.827,1.174,3.054,2.924,4.777
		c1.827,1.879,3.394,3.524,3.394,6.291c0,2.872-1.774,4.777-4.489,4.777c-2.95,0-4.464-1.723-4.464-5.116v-1.41H47.942z"/>
	<polygon clip-path="url(#SVGID_2_)" fill="#164194" points="3.511,22.025 3.863,21.547 8.287,24.797 6.978,21.487 7.337,21 
		8.324,23.65 11.958,24.314 11.595,24.811 8.582,24.264 8.95,25.271 10.448,26.372 10.09,26.859 	"/>
	<path clip-path="url(#SVGID_2_)" fill="#164194" d="M13.078,20.071c0.436,0.452,0.68,0.786,0.801,1.156
		c0.197,0.546,0.108,1.078-0.238,1.448c-0.766,0.819-2.042,0.574-3.352-0.65c-1.334-1.247-1.711-2.533-0.982-3.312
		c0.322-0.346,0.887-0.466,1.428-0.305c0.794,0.229,1.372,0.77,1.814,1.168l-1.81,1.936c0.714,0.637,1.804,1.612,2.517,0.849
		c0.429-0.458,0.253-1.059-0.56-1.88L13.078,20.071z M11.76,19.696c-1.003-0.893-1.641-1.08-2.074-0.615
		c-0.446,0.474-0.201,1.197,0.698,2.085L11.76,19.696z"/>
	<path clip-path="url(#SVGID_2_)" fill="#164194" d="M12.775,16.48c-0.122-0.604-0.005-1.063,0.35-1.361
		c0.553-0.469,1.283-0.32,1.858,0.36l2.762,3.271l-0.454,0.384l-2.662-3.153c-0.548-0.648-0.933-0.797-1.303-0.485
		c-0.294,0.249-0.341,0.892-0.118,1.496l2.755,3.264l-0.456,0.383l-3.669-4.348l0.453-0.383L12.775,16.48z"/>
	<path clip-path="url(#SVGID_2_)" fill="#164194" d="M16.674,13.445c-0.047-0.613,0.123-1.056,0.51-1.309
		c0.605-0.399,1.312-0.165,1.803,0.579l2.348,3.577l-0.495,0.327l-2.266-3.448c-0.464-0.708-0.83-0.903-1.234-0.638
		c-0.322,0.212-0.445,0.847-0.297,1.473l2.344,3.567L18.891,17.9l-3.123-4.754l0.496-0.326L16.674,13.445z"/>
	<path clip-path="url(#SVGID_2_)" fill="#164194" d="M18.836,8.344l0.533-0.286l0.52,0.971l-0.533,0.285L18.836,8.344z
		 M20.006,10.528l0.523-0.28l2.686,5.015l-0.523,0.281L20.006,10.528z"/>
	<path clip-path="url(#SVGID_2_)" fill="#164194" d="M24.131,12.765c0.475,0.91,0.934,1.168,1.55,0.902
		c0.415-0.178,0.61-0.753,0.41-1.218c-0.247-0.577-0.781-0.647-1.367-0.73c-0.858-0.099-1.641-0.218-2.001-1.057
		c-0.326-0.758-0.032-1.58,0.665-1.88c1.315-0.564,1.972,0.854,2.198,1.32l-0.497,0.214c-0.416-0.888-0.956-1.279-1.481-1.052
		c-0.406,0.174-0.571,0.652-0.38,1.097c0.222,0.516,0.799,0.603,1.518,0.689c0.653,0.068,1.472,0.159,1.849,1.038
		c0.369,0.86,0.05,1.704-0.789,2.065c-1.346,0.578-1.991-0.785-2.171-1.175L24.131,12.765z"/>
	<path clip-path="url(#SVGID_2_)" fill="#164194" d="M30.69,10.13c0.159,0.642,0.19,0.896,0.142,1.302
		c-0.069,0.608-0.379,1.069-0.999,1.257c-1.034,0.312-1.997-0.558-2.501-2.266c-0.543-1.791-0.254-3.039,0.789-3.355
		c0.791-0.238,1.603,0.32,1.903,1.311L30.1,8.632l-0.536,0.162c-0.437-1.443-1.088-1.315-1.299-1.252
		c-0.684,0.207-0.78,1.03-0.309,2.588c0.48,1.59,1.056,2.278,1.742,2.072c0.579-0.176,0.718-0.816,0.424-1.9L30.69,10.13z"/>
	<path clip-path="url(#SVGID_2_)" fill="#164194" d="M35.222,9.263c0.077,0.624,0.073,1.038-0.052,1.407
		c-0.17,0.554-0.562,0.925-1.06,1.014c-1.106,0.195-1.981-0.766-2.293-2.533c-0.319-1.797,0.151-3.054,1.202-3.24
		c0.466-0.083,0.99,0.16,1.327,0.613c0.497,0.662,0.635,1.441,0.749,2.024l-2.61,0.463c0.188,0.938,0.477,2.374,1.506,2.191
		c0.618-0.109,0.838-0.696,0.679-1.841L35.222,9.263z M34.392,8.171c-0.267-1.317-0.663-1.85-1.291-1.738
		c-0.64,0.113-0.881,0.836-0.692,2.088L34.392,8.171z"/>
	<path clip-path="url(#SVGID_2_)" fill="#164194" d="M37.137,6.211c0.266-0.556,0.633-0.853,1.096-0.879
		c0.724-0.042,1.218,0.513,1.27,1.404l0.247,4.273l-0.593,0.035l-0.238-4.12c-0.048-0.846-0.266-1.197-0.751-1.17
		c-0.385,0.023-0.807,0.51-0.993,1.127l0.246,4.263l-0.593,0.034L36.5,5.498l0.594-0.035L37.137,6.211z"/>
	<path clip-path="url(#SVGID_2_)" fill="#164194" d="M40.868,5.458c0.452-0.006,0.995-0.084,1.09-2.117l0.275,0.011l-0.075,2.032
		l0.77,0.028L42.91,5.917l-0.803-0.028l-0.16,4.382c-0.01,0.286,0.073,0.41,0.26,0.416c0.142,0.006,0.256-0.055,0.427-0.258
		l0.157,0.237c-0.3,0.384-0.526,0.519-0.832,0.508c-0.406-0.015-0.613-0.374-0.593-0.989l0.158-4.319l-0.67-0.024L40.868,5.458z"/>
	<path clip-path="url(#SVGID_2_)" fill="#164194" d="M44.934,7.032c0.263-0.446,0.626-0.891,0.93-1.132
		c0.367-0.29,0.704-0.239,0.963-0.176L46.74,6.445l-0.16-0.029c-0.412-0.082-0.668-0.09-0.939,0.155
		c-0.482,0.432-0.776,1.151-0.788,1.249l-0.402,3.433l-0.59-0.07l0.661-5.651l0.58,0.068L44.934,7.032z"/>
	<path clip-path="url(#SVGID_2_)" fill="#164194" d="M48.442,6.086l0.579,0.131l-0.932,4.096c-0.171,0.749-0.034,1.186,0.406,1.287
		c0.6,0.136,1.236-0.677,1.259-0.785l0.96-4.212l0.579,0.132l-1.263,5.541l-0.578-0.131l0.159-0.697
		c-0.372,0.445-0.856,0.639-1.285,0.541c-0.718-0.163-1.041-0.822-0.838-1.723L48.442,6.086z"/>
	<path clip-path="url(#SVGID_2_)" fill="#164194" d="M53.35,7.269l0.555,0.216L53.653,8.13c0.533-0.37,0.944-0.458,1.376-0.291
		c0.44,0.171,0.695,0.577,0.715,1.164c0.469-0.385,0.986-0.503,1.417-0.336c0.707,0.275,0.948,0.994,0.601,1.887l-1.529,3.937
		l-0.554-0.215l1.454-3.743c0.318-0.821,0.252-1.318-0.169-1.481C56.37,8.82,55.651,9.485,55.6,9.619l-1.563,4.019l-0.552-0.215
		l1.43-3.682c0.195-0.502,0.492-1.295-0.103-1.526c-0.431-0.167-0.921,0.031-1.422,0.593l-1.546,3.978l-0.553-0.215L53.35,7.269z"/>
	<path clip-path="url(#SVGID_2_)" fill="#164194" d="M62.577,11.578l0.505,0.314l-3.002,4.832l-0.504-0.313L62.577,11.578z
		 M63.884,9.475l0.515,0.32l-0.581,0.934l-0.515-0.319L63.884,9.475z"/>
	<path clip-path="url(#SVGID_2_)" fill="#164194" d="M64.765,13.927c0.559-0.259,1.032-0.252,1.404,0.021
		c0.586,0.43,0.612,1.173,0.085,1.892l-2.534,3.449l-0.479-0.351l2.442-3.326c0.502-0.683,0.558-1.092,0.167-1.379
		c-0.311-0.228-0.948-0.122-1.482,0.235l-2.527,3.44l-0.479-0.352l3.368-4.584l0.479,0.352L64.765,13.927z"/>
	<path clip-path="url(#SVGID_2_)" fill="#164194" d="M66.262,19.099c-0.646,0.798-0.701,1.32-0.212,1.781
		c0.328,0.309,0.933,0.26,1.28-0.108c0.43-0.456,0.283-0.974,0.127-1.545c-0.251-0.825-0.452-1.59,0.172-2.254
		c0.568-0.601,1.438-0.658,1.989-0.137c1.041,0.982,0.002,2.149-0.336,2.539l-0.393-0.369c0.648-0.735,0.79-1.386,0.376-1.778
		c-0.321-0.302-0.827-0.264-1.157,0.089c-0.385,0.408-0.237,0.971-0.03,1.666c0.197,0.624,0.439,1.412-0.218,2.108
		c-0.641,0.68-1.542,0.723-2.206,0.096c-1.064-1.004-0.071-2.138,0.215-2.457L66.262,19.099z"/>
	<path clip-path="url(#SVGID_2_)" fill="#164194" d="M71.288,24.095c-0.501,0.379-0.862,0.583-1.243,0.66
		c-0.566,0.132-1.085-0.022-1.411-0.408c-0.724-0.858-0.329-2.098,1.041-3.254c1.396-1.18,2.719-1.403,3.407-0.588
		c0.306,0.362,0.358,0.936,0.136,1.456c-0.322,0.762-0.928,1.274-1.374,1.664l-1.712-2.026c-0.718,0.635-1.814,1.604-1.14,2.403
		c0.404,0.48,1.021,0.375,1.934-0.336L71.288,24.095z M71.816,22.827c1.005-0.891,1.267-1.501,0.855-1.99
		c-0.419-0.495-1.166-0.34-2.154,0.451L71.816,22.827z"/>
	<path clip-path="url(#SVGID_2_)" fill="#164194" d="M73.893,27.896c-0.568,0.335-0.804,0.438-1.208,0.505
		c-0.601,0.107-1.131-0.057-1.487-0.598c-0.594-0.902-0.035-2.073,1.459-3.043c1.562-1.029,2.841-1.108,3.438-0.198
		c0.454,0.689,0.149,1.626-0.713,2.195l-0.221,0.145l-0.309-0.468c1.258-0.829,0.95-1.416,0.829-1.6
		c-0.395-0.597-1.208-0.455-2.567,0.44c-1.387,0.914-1.882,1.662-1.488,2.259c0.331,0.505,0.985,0.456,1.94-0.134L73.893,27.896z"/>
	<path clip-path="url(#SVGID_2_)" fill="#164194" d="M77.381,27.036c0.23,0.388,0.57,0.817,2.377-0.117l0.129,0.243l-1.796,0.953
		l0.36,0.68l-0.447,0.237l-0.375-0.709l-3.875,2.056c-0.253,0.135-0.317,0.268-0.229,0.433c0.066,0.126,0.176,0.193,0.438,0.241
		l-0.128,0.253c-0.482-0.066-0.711-0.194-0.855-0.465c-0.191-0.36,0.016-0.719,0.56-1.008l3.816-2.024l-0.314-0.592L77.381,27.036z"
		/>
	<path clip-path="url(#SVGID_2_)" fill="#164194" d="M76.979,34.384c-0.592,0.211-0.996,0.297-1.382,0.257
		c-0.579-0.044-1.028-0.346-1.223-0.813c-0.433-1.036,0.314-2.099,1.969-2.79c1.685-0.705,3.013-0.521,3.425,0.463
		c0.184,0.437,0.061,1-0.308,1.429c-0.538,0.629-1.269,0.934-1.812,1.174l-1.021-2.446c-0.875,0.389-2.213,0.985-1.809,1.948
		c0.241,0.579,0.863,0.665,1.945,0.26L76.979,34.384z M77.863,33.334c1.226-0.548,1.659-1.051,1.413-1.64
		c-0.251-0.598-1.009-0.674-2.19-0.216L77.863,33.334z"/>
	<path clip-path="url(#SVGID_2_)" fill="#164194" d="M80.381,35.602c0.601,0.138,0.97,0.432,1.097,0.876
		c0.2,0.699-0.234,1.303-1.091,1.547l-4.113,1.173l-0.163-0.571l3.966-1.131c0.813-0.232,1.109-0.522,0.977-0.988
		c-0.106-0.37-0.674-0.677-1.317-0.722l-4.102,1.17l-0.163-0.571l5.467-1.559l0.164,0.571L80.381,35.602z"/>
	<path clip-path="url(#SVGID_2_)" fill="#E30613" d="M78.622,44.866c-0.397,0.03-0.565,0.02-0.806-0.051
		c-0.541-0.158-0.773-0.546-0.819-0.956c-0.034-0.29,0.048-0.564,0.22-0.787c0.298-0.366,0.775-0.549,1.796-0.665
		c1.208-0.138,1.738-0.048,2.069,0.345c0.131,0.151,0.204,0.332,0.228,0.54c0.036,0.305-0.032,0.569-0.204,0.786
		c-0.258,0.323-0.611,0.462-1.511,0.572l-0.322,0.036l-0.181-1.587l-0.238,0.028c-0.672,0.076-1.33,0.182-1.27,0.71
		c0.039,0.343,0.365,0.487,0.968,0.418L78.622,44.866z M79.688,43.945l0.163-0.02c0.462-0.051,1.057-0.134,1.007-0.566
		c-0.047-0.411-0.633-0.381-1.132-0.325l-0.14,0.016L79.688,43.945z"/>
	<path clip-path="url(#SVGID_2_)" fill="#E30613" d="M80.551,46.332c0.439,0.16,0.963,0.341,0.978,0.858
		c0.014,0.48-0.43,0.733-1.354,0.76l-2.865,0.082l-0.021-0.675l2.965-0.085c0.473-0.013,0.711-0.126,0.705-0.328
		c-0.01-0.316-0.595-0.539-1.36-0.517l-2.333,0.067l-0.021-0.683l4.204-0.121l0.017,0.616L80.551,46.332z"/>
	<path clip-path="url(#SVGID_2_)" fill="#E30613" d="M80.188,50.505c0.864,0.096,1.269,0.524,1.204,1.226
		c-0.068,0.732-0.465,1.034-1.227,0.963l-1.979-0.183c-0.282-0.027-0.586-0.01-0.848,0.041c-0.138,0.024-0.191,0.043-0.325,0.113
		l0.062-0.681c0.181-0.089,0.379-0.106,0.622-0.137c-0.431-0.304-0.602-0.569-0.57-0.905c0.051-0.545,0.47-0.776,1.262-0.702
		c0.427,0.039,0.723,0.172,0.912,0.401c0.15,0.179,0.193,0.348,0.213,0.779c0.007,0.265,0.015,0.333,0.055,0.548l0.725,0.066
		c0.329,0.031,0.537-0.106,0.561-0.361c0.03-0.321-0.174-0.46-0.81-0.528L80.188,50.505z M79.071,51.916
		c-0.057-0.691-0.147-0.926-0.781-0.984c-0.447-0.041-0.677,0.058-0.699,0.304c-0.028,0.299,0.36,0.575,0.877,0.623L79.071,51.916z"
		/>
	<path clip-path="url(#SVGID_2_)" fill="#E30613" d="M80.031,54.592c0.397,0.247,0.874,0.531,0.781,1.041
		c-0.084,0.474-0.57,0.631-1.479,0.467l-2.821-0.506l0.119-0.665l2.918,0.522c0.465,0.083,0.721,0.022,0.756-0.176
		c0.056-0.312-0.471-0.649-1.225-0.784l-2.297-0.413l0.119-0.673l4.139,0.743l-0.107,0.605L80.031,54.592z"/>
	<path clip-path="url(#SVGID_2_)" fill="#E30613" d="M81.232,59.439l-0.177,0.659l-5.332-1.442l0.138-0.513
		c0.247,0.066,0.561,0.112,0.715,0.115c-0.304-0.222-0.639-0.568-0.525-0.988c0.066-0.245,0.201-0.342,0.33-0.416
		c0.442-0.253,1.244-0.059,1.852,0.105c0.781,0.211,1.666,0.466,1.92,0.906c0.069,0.12,0.121,0.328,0.069,0.524
		c-0.077,0.282-0.325,0.51-0.782,0.564L81.232,59.439z M78.785,57.87l-1.027-0.277c-0.629-0.17-1.144-0.279-1.227,0.033
		c-0.023,0.08-0.008,0.169,0.062,0.288c0.185,0.32,0.788,0.501,1.191,0.609c0.817,0.222,1.303,0.353,1.689,0.13
		c0.073-0.042,0.178-0.113,0.207-0.216C79.754,58.163,79.342,58.02,78.785,57.87"/>
	<path clip-path="url(#SVGID_2_)" fill="#E30613" d="M75.99,62.223c-0.369-0.15-0.514-0.234-0.7-0.405
		c-0.409-0.38-0.445-0.832-0.305-1.22c0.099-0.274,0.294-0.483,0.547-0.606c0.43-0.194,0.939-0.145,1.903,0.205
		c1.141,0.415,1.575,0.732,1.699,1.231c0.049,0.192,0.033,0.387-0.038,0.584c-0.104,0.289-0.283,0.495-0.533,0.612
		c-0.374,0.175-0.753,0.141-1.608-0.161l-0.303-0.111l0.546-1.5l-0.228-0.082c-0.632-0.229-1.27-0.43-1.451,0.071
		c-0.117,0.324,0.11,0.597,0.68,0.804L75.99,62.223z M77.354,61.874l0.154,0.056c0.438,0.159,1.006,0.35,1.154-0.059
		c0.141-0.389-0.396-0.622-0.868-0.794l-0.135-0.049L77.354,61.874z"/>
	<path clip-path="url(#SVGID_2_)" fill="#E30613" d="M76.862,64.378c0.088,0.113,0.161,0.206,0.2,0.266
		c0.574,0.713,0.555,0.827,0.371,1.229l-0.718-0.325c0.05-0.068,0.067-0.109,0.09-0.157c0.165-0.362,0.01-0.803-0.445-1.231
		l-2.326-1.057l0.282-0.622l3.82,1.736l-0.279,0.614L76.862,64.378z"/>
	<path clip-path="url(#SVGID_2_)" fill="#E30613" d="M73.39,67.48c-0.341-0.205-0.471-0.312-0.628-0.508
		c-0.348-0.44-0.313-0.893-0.114-1.253c0.142-0.257,0.366-0.433,0.634-0.516c0.455-0.126,0.949,0.001,1.85,0.496
		c1.062,0.586,1.443,0.967,1.488,1.479c0.018,0.197-0.025,0.389-0.127,0.571c-0.147,0.27-0.355,0.446-0.621,0.522
		c-0.398,0.116-0.766,0.022-1.564-0.407l-0.282-0.156l0.771-1.397l-0.211-0.116c-0.591-0.326-1.189-0.621-1.446-0.154
		c-0.166,0.302,0.017,0.608,0.548,0.9L73.39,67.48z M74.791,67.344l0.145,0.078c0.406,0.225,0.939,0.5,1.148,0.12
		c0.199-0.361-0.295-0.677-0.734-0.918l-0.125-0.068L74.791,67.344z"/>
	<path clip-path="url(#SVGID_2_)" fill="#E30613" d="M74.012,71.207c0.043,0.271-0.015,0.505-0.182,0.737
		c-0.188,0.262-0.401,0.366-0.678,0.417c-0.518,0.09-1.077-0.25-1.71-0.705c-0.487-0.351-1.212-0.908-1.308-1.493
		c-0.025-0.158-0.049-0.444,0.174-0.753c0.206-0.286,0.454-0.375,0.689-0.419c0.569-0.087,1.214,0.366,1.699,0.716
		C73.44,70.241,73.925,70.644,74.012,71.207 M73.396,71.65c0.244-0.343-0.341-0.771-1.011-1.254
		c-0.862-0.62-1.409-1.006-1.646-0.677s0.308,0.739,1.136,1.334C72.569,71.552,73.168,71.965,73.396,71.65"/>
	<path clip-path="url(#SVGID_2_)" fill="#E30613" d="M71.227,73.702c0.219,0.415,0.486,0.899,0.149,1.292
		c-0.312,0.366-0.812,0.255-1.512-0.344l-2.179-1.863l0.438-0.513l2.253,1.926c0.36,0.307,0.61,0.383,0.741,0.229
		c0.205-0.238-0.077-0.797-0.658-1.294l-1.774-1.517l0.442-0.519l3.195,2.729l-0.4,0.468L71.227,73.702z"/>
	<path clip-path="url(#SVGID_2_)" fill="#E30613" d="M66.435,73.611c-0.148-0.098-0.314-0.062-0.501,0.125
		c-0.412,0.404-0.069,0.752,0.078,0.901c0.079,0.08,0.174,0.166,0.274,0.268c-0.077-0.365-0.063-0.643,0.196-0.9
		c0.183-0.18,0.38-0.205,0.534-0.209c0.44,0.009,0.929,0.464,1.462,1.005c0.77,0.781,1.19,1.25,1.187,1.749
		c-0.002,0.17-0.066,0.361-0.222,0.514c-0.226,0.222-0.574,0.24-0.944,0.077l0.398,0.406l-0.485,0.481l-2.73-2.772
		c-0.346-0.353-0.968-0.983-0.048-1.889c0.529-0.522,0.991-0.492,1.264-0.213L66.435,73.611z M67.919,75.29
		c-0.665-0.674-1.071-1.075-1.316-0.833c-0.06,0.058-0.091,0.153-0.093,0.259c-0.003,0.414,0.429,0.854,0.986,1.42
		c0.369,0.374,0.781,0.749,1.142,0.773c0.169,0.012,0.249-0.014,0.344-0.109c0.184-0.179-0.058-0.488-0.501-0.938L67.919,75.29z"/>
	<path clip-path="url(#SVGID_2_)" fill="#E30613" d="M63.889,78.25c-0.243-0.314-0.325-0.461-0.398-0.702
		c-0.163-0.536,0.034-0.945,0.353-1.209c0.225-0.187,0.499-0.268,0.779-0.247c0.47,0.05,0.884,0.349,1.54,1.14
		c0.777,0.935,0.991,1.429,0.844,1.922c-0.055,0.191-0.166,0.351-0.326,0.486c-0.236,0.195-0.496,0.283-0.77,0.259
		c-0.413-0.038-0.723-0.259-1.308-0.953l-0.207-0.247l1.229-1.022l-0.152-0.185c-0.433-0.519-0.881-1.013-1.291-0.673
		c-0.266,0.22-0.208,0.572,0.181,1.04L63.889,78.25z M65.243,78.637l0.105,0.127c0.298,0.357,0.692,0.81,1.026,0.531
		c0.318-0.263-0.027-0.736-0.349-1.124l-0.091-0.109L65.243,78.637z"/>
	<polygon clip-path="url(#SVGID_2_)" fill="#E30613" points="64.985,80.937 64.468,81.284 62.357,79.137 63.45,81.962 
		63.026,82.246 60.844,80.14 62.017,82.921 61.506,83.263 59.933,79.223 60.363,78.936 62.516,81.008 61.424,78.226 61.861,77.934 	
		"/>
	<path clip-path="url(#SVGID_2_)" fill="#E30613" d="M57.232,82.391c-0.172-0.359-0.222-0.519-0.244-0.77
		c-0.05-0.56,0.228-0.919,0.592-1.111c0.26-0.137,0.544-0.159,0.813-0.08c0.449,0.143,0.794,0.521,1.275,1.431
		c0.567,1.074,0.675,1.602,0.431,2.054c-0.094,0.176-0.233,0.311-0.421,0.408c-0.271,0.145-0.542,0.176-0.806,0.095
		c-0.396-0.121-0.654-0.399-1.084-1.2l-0.15-0.284l1.412-0.747l-0.113-0.212c-0.314-0.598-0.652-1.174-1.123-0.925
		c-0.305,0.161-0.32,0.519-0.037,1.056L57.232,82.391z M58.48,83.049l0.076,0.146c0.216,0.41,0.51,0.933,0.896,0.73
		c0.364-0.192,0.123-0.728-0.11-1.173l-0.066-0.126L58.48,83.049z"/>
	<path clip-path="url(#SVGID_2_)" fill="#E30613" d="M56.443,84.578c-0.011,0.144-0.017,0.261-0.027,0.329
		c-0.053,0.915-0.145,0.987-0.55,1.164l-0.313-0.723c0.082-0.019,0.123-0.036,0.171-0.057c0.365-0.159,0.544-0.589,0.495-1.213
		l-1.021-2.346l0.625-0.272l1.678,3.852l-0.619,0.27L56.443,84.578z"/>
	<polygon clip-path="url(#SVGID_2_)" fill="#E30613" points="54.975,86.378 54.351,86.593 52.8,84 53.138,87.007 52.514,87.221 
		52.123,82.876 52.641,82.7 	"/>
	<path clip-path="url(#SVGID_2_)" fill="#E30613" d="M48.6,85.39c-0.082-0.388-0.094-0.555-0.057-0.804
		c0.084-0.555,0.438-0.838,0.836-0.938c0.285-0.072,0.567-0.026,0.811,0.111c0.401,0.247,0.646,0.695,0.898,1.69
		c0.295,1.176,0.278,1.715-0.066,2.095c-0.131,0.149-0.301,0.246-0.503,0.298c-0.299,0.075-0.569,0.043-0.806-0.098
		c-0.354-0.212-0.54-0.543-0.77-1.421l-0.078-0.313l1.547-0.39l-0.06-0.232c-0.163-0.654-0.356-1.293-0.872-1.164
		c-0.334,0.085-0.435,0.427-0.285,1.015L48.6,85.39z M49.654,86.321l0.04,0.161c0.115,0.449,0.276,1.027,0.697,0.92
		c0.399-0.101,0.292-0.677,0.169-1.163l-0.034-0.138L49.654,86.321z"/>
	
		<rect x="47.214" y="84.174" transform="matrix(0.9836 -0.1801 0.1801 0.9836 -14.8831 9.989)" clip-path="url(#SVGID_2_)" fill="#E30613" width="0.683" height="5.525"/>
	<path clip-path="url(#SVGID_2_)" fill="#E30613" d="M44.848,90.124l-0.677,0.079l-0.643-5.489l0.529-0.062
		c0.029,0.254,0.104,0.563,0.158,0.707c0.093-0.366,0.291-0.805,0.723-0.854c0.253-0.03,0.392,0.06,0.509,0.151
		c0.399,0.315,0.518,1.133,0.591,1.758c0.094,0.805,0.187,1.723-0.13,2.121c-0.086,0.108-0.26,0.234-0.46,0.26
		c-0.291,0.032-0.595-0.112-0.815-0.518L44.848,90.124z M45.397,87.265l-0.123-1.057c-0.076-0.649-0.167-1.167-0.488-1.129
		c-0.081,0.009-0.158,0.057-0.245,0.165c-0.229,0.289-0.171,0.918-0.122,1.335c0.098,0.842,0.156,1.341,0.506,1.616
		c0.066,0.054,0.174,0.124,0.277,0.111C45.485,88.274,45.465,87.839,45.397,87.265"/>
	<path clip-path="url(#SVGID_2_)" fill="#E30613" d="M40.291,86.278c0.003-0.396,0.029-0.562,0.12-0.797
		c0.2-0.524,0.608-0.724,1.02-0.737c0.292-0.008,0.557,0.097,0.766,0.286c0.34,0.326,0.482,0.817,0.514,1.845
		c0.035,1.214-0.099,1.734-0.518,2.032c-0.162,0.117-0.348,0.176-0.558,0.183c-0.307,0.01-0.565-0.081-0.765-0.271
		c-0.3-0.284-0.409-0.646-0.444-1.554l-0.009-0.322l1.596-0.048l-0.007-0.24c-0.022-0.675-0.071-1.341-0.604-1.325
		c-0.343,0.012-0.513,0.324-0.496,0.931L40.291,86.278z M41.121,87.417l0.004,0.165c0.015,0.465,0.047,1.063,0.482,1.051
		c0.411-0.013,0.432-0.599,0.417-1.101l-0.005-0.142L41.121,87.417z"/>
	<path clip-path="url(#SVGID_2_)" fill="#E30613" d="M38.668,88.083c-0.194,0.426-0.418,0.932-0.935,0.902
		c-0.479-0.024-0.694-0.488-0.645-1.41l0.156-2.861l0.674,0.037l-0.161,2.96c-0.025,0.471,0.066,0.717,0.268,0.727
		c0.316,0.018,0.586-0.546,0.629-1.31l0.126-2.33l0.681,0.037l-0.227,4.194l-0.615-0.033L38.668,88.083z"/>
</g>
</svg>
