<?xml version="1.0" encoding="utf-8"?>
<!-- Generator: Adobe Illustrator 16.0.0, SVG Export Plug-In . SVG Version: 6.00 Build 0)  -->
<!DOCTYPE svg PUBLIC "-//W3C//DTD SVG 1.1//EN" "http://www.w3.org/Graphics/SVG/1.1/DTD/svg11.dtd">
<svg version="1.1" id="Layer_1" xmlns="http://www.w3.org/2000/svg" xmlns:xlink="http://www.w3.org/1999/xlink" x="0px" y="0px"
	 width="231px" height="343px" viewBox="0 0 231 343" enable-background="new 0 0 231 343" xml:space="preserve">
<g fill="#e3004a">
	<path d="M1.016,187.986c0,9.354,7.653,17.008,17.008,17.008h55.276c9.354,0,17.008-7.653,17.008-17.008
		s-7.653-17.008-17.008-17.008H18.023C8.669,170.979,1.016,178.632,1.016,187.986z"/>
	<path d="M1.016,145.466c0,9.354,7.653,17.008,17.008,17.008h55.276c9.354,0,17.008-7.653,17.008-17.008
		s-7.653-17.008-17.008-17.008H18.023C8.669,128.458,1.016,136.112,1.016,145.466z"/>
	<path d="M73.299,0.899c-9.393,0-17.008,7.615-17.008,17.008v27.667L32.288,8.645c-0.034-0.052-0.068-0.099-0.102-0.15
		c-0.045-0.068-0.092-0.135-0.138-0.203c-0.631-0.927-1.28-1.709-1.947-2.355c-0.062-0.063-0.129-0.123-0.192-0.185
		c-0.063-0.059-0.127-0.117-0.191-0.173c-3.049-2.893-7.159-4.679-11.694-4.679c-9.393,0-17.008,7.615-17.008,17.008v85.039
		c0,9.393,7.615,17.008,17.008,17.008s17.008-7.615,17.008-17.008V75.282l24.003,36.928c0.038,0.059,0.077,0.111,0.115,0.168
		c0.036,0.054,0.073,0.107,0.109,0.161c0.64,0.943,1.298,1.736,1.976,2.39c0.048,0.049,0.099,0.094,0.147,0.142
		c0.083,0.077,0.166,0.153,0.249,0.226c3.047,2.879,7.146,4.656,11.668,4.656c9.393,0,17.008-7.615,17.008-17.008V17.907
		C90.307,8.514,82.692,0.899,73.299,0.899z"/>
	<g>
		<g>
			<path d="M12.688,298.571H5.303v-33.188h6.954c5.803,0,9.352,2.734,9.352,8.489c0,3.356-1.535,5.899-4.077,7.194
				c3.069,1.104,5.084,3.885,5.084,8.105C22.616,295.167,18.444,298.571,12.688,298.571z M8.132,267.926v12.229h4.125
				c4.221,0,6.378-2.35,6.378-6.187c0-3.789-2.062-6.043-6.378-6.043H8.132z M8.132,282.603v13.428h4.46
				c4.7,0,7.05-2.781,7.05-6.857c0-3.982-2.254-6.57-7.05-6.57H8.132z"/>
			<path d="M26.449,267.303c0-1.295,1.007-2.254,2.254-2.254s2.254,0.959,2.254,2.254s-1.007,2.254-2.254,2.254
				S26.449,268.598,26.449,267.303z M30.094,298.571h-2.781v-25.658h2.781V298.571z"/>
			<path d="M46.988,272.481c7.338,0,13.093,5.469,13.093,13.285c0,7.77-5.899,13.236-13.188,13.236
				c-7.338,0-13.045-5.227-13.045-13.236C33.847,277.806,39.698,272.481,46.988,272.481z M46.94,296.509
				c5.899,0,10.263-4.412,10.263-10.742c0-6.234-4.316-10.791-10.263-10.791s-10.215,4.508-10.215,10.791
				C36.725,292.097,40.993,296.509,46.94,296.509z"/>
			<path d="M86.309,293.585c-1.151,2.254-4.604,5.418-10.023,5.418c-7.578,0-13.045-5.322-13.045-13.236
				c0-7.674,5.611-13.285,13.045-13.285c4.46,0,8.296,2.256,10.023,5.084v-14.052h2.782v35.058h-2.782V293.585z M76.286,296.509
				c5.899,0,10.167-4.412,10.167-10.742c0-6.283-4.268-10.791-10.167-10.791s-10.167,4.508-10.167,10.791
				C66.119,292.097,70.387,296.509,76.286,296.509z"/>
			<path d="M94.267,267.303c0-1.295,1.007-2.254,2.254-2.254s2.254,0.959,2.254,2.254s-1.007,2.254-2.254,2.254
				S94.267,268.598,94.267,267.303z M97.911,298.571H95.13v-25.658h2.781V298.571z"/>
			<path d="M113.209,295.358l8.968-22.445h2.926l-10.455,25.658h-3.021l-10.551-25.658h3.069L113.209,295.358z"/>
			<path d="M128.6,286.534c0.336,6.139,4.173,9.975,10.023,9.975c4.845,0,7.626-2.396,9.545-6.377l2.157,0.959
				c-1.822,4.508-5.803,7.912-11.702,7.912c-7.625,0-12.9-5.322-12.9-13.236c0-7.77,5.228-13.285,12.517-13.285
				c7.338,0,12.325,4.748,12.518,12.471c0,0.336,0,1.055-0.048,1.582H128.6z M128.696,284.136h19.135
				c-0.239-5.898-4.268-9.16-9.688-9.16C133.012,274.976,129.271,278.333,128.696,284.136z"/>
			<path d="M164.277,275.647h-0.911c-3.693,0-5.516,2.35-5.516,6.33v16.594h-2.781v-25.658h2.781v2.879
				c0.863-1.486,2.83-2.927,6.427-2.879V275.647z"/>
			<path d="M172.332,283.034c1.582,0.719,3.021,0.91,4.796,1.629c3.166,1.295,4.987,3.311,4.987,7.051
				c0,4.461-3.548,7.146-8.104,7.146c-5.804,0-8.009-3.742-8.009-8.105h2.733c0.096,3.164,1.391,5.707,5.42,5.754
				c2.733,0.049,5.179-1.533,5.179-4.604c0-2.732-1.391-3.98-3.453-4.795c-1.63-0.672-3.357-1.008-4.987-1.775
				c-3.069-1.486-4.125-3.549-4.125-6.234c0-3.932,2.974-6.475,7.29-6.475c5.372,0,7.242,3.549,7.289,7.434h-2.638
				c-0.143-3.164-1.63-5.131-4.699-5.131c-2.686,0-4.509,1.438-4.509,4.027C169.502,281.019,170.462,282.171,172.332,283.034z"/>
			<path d="M185.519,267.303c0-1.295,1.007-2.254,2.254-2.254s2.254,0.959,2.254,2.254s-1.007,2.254-2.254,2.254
				S185.519,268.598,185.519,267.303z M189.163,298.571h-2.781v-25.658h2.781V298.571z"/>
			<path d="M198.466,272.913h5.468v2.447h-5.468v16.785c0,2.59,0.336,4.076,3.261,4.076h2.158v2.445
				c-0.624,0.049-1.631,0.096-2.445,0.096c-4.7,0-5.755-2.205-5.755-6.139V275.36h-2.782v-2.447h2.782v-3.884h2.781V272.913z"/>
			<path d="M213.231,306.964l3.356-8.393l-10.886-25.658h3.116l9.256,22.109l8.682-22.109h3.021l-13.716,34.051H213.231z"/>
		</g>
		<g>
			<path d="M32.007,337.312c-1.823,1.871-5.611,4.412-10.887,4.412c-9.784,0-16.785-7.098-16.785-17.217s6.954-17.264,16.689-17.264
				c3.98,0,7.769,1.246,10.455,3.787l-1.678,1.967c-2.35-2.014-5.467-3.164-8.825-3.164c-8.249,0-13.716,6.041-13.716,14.674
				s5.803,14.629,13.908,14.629c4.364,0,7.338-1.967,9.256-3.693L32.007,337.312z"/>
			<path d="M36.478,329.063c0.336,6.139,4.172,9.975,10.023,9.975c4.844,0,7.625-2.396,9.544-6.377l2.158,0.959
				c-1.822,4.508-5.803,7.912-11.702,7.912c-7.625,0-12.901-5.322-12.901-13.236c0-7.77,5.228-13.285,12.517-13.285
				c7.338,0,12.325,4.748,12.517,12.471c0,0.336,0,1.055-0.048,1.582H36.478z M36.574,326.665h19.135
				c-0.24-5.898-4.269-9.16-9.688-9.16C40.89,317.505,37.149,320.862,36.574,326.665z"/>
			<path d="M77.191,324.364c0-4.221-1.774-6.715-5.563-6.715c-3.836,0-5.851,2.781-5.851,6.953v16.498h-2.781v-25.658h2.781v2.688
				c0.815-1.344,2.878-2.975,6.139-2.975c5.755,0,8.057,3.98,8.057,8.969v16.977h-2.782V324.364z"/>
			<path d="M88.698,315.442h5.467v2.447h-5.467v16.785c0,2.59,0.335,4.076,3.261,4.076h2.158v2.445
				c-0.624,0.049-1.63,0.096-2.446,0.096c-4.7,0-5.755-2.205-5.755-6.139V317.89h-2.782v-2.447h2.782v-3.883h2.782V315.442z"/>
			<path d="M98.719,329.063c0.336,6.139,4.172,9.975,10.023,9.975c4.844,0,7.626-2.396,9.544-6.377l2.158,0.959
				c-1.822,4.508-5.803,7.912-11.702,7.912c-7.625,0-12.9-5.322-12.9-13.236c0-7.77,5.228-13.285,12.518-13.285
				c7.338,0,12.325,4.748,12.517,12.471c0,0.336,0,1.055-0.048,1.582H98.719z M98.815,326.665h19.136
				c-0.24-5.898-4.27-9.16-9.688-9.16C103.131,317.505,99.391,320.862,98.815,326.665z"/>
			<path d="M134.396,318.177h-0.911c-3.692,0-5.516,2.35-5.516,6.33v16.594h-2.781v-25.658h2.781v2.879
				c0.863-1.486,2.829-2.926,6.427-2.879V318.177z"/>
		</g>
		<g>
			<polygon points="12.112,232.965 12.112,255.986 5.296,255.986 5.296,221.051 12.566,221.051 27.561,244.476 27.561,221.051 
				34.375,221.051 34.375,255.986 27.409,255.986 			"/>
			<path d="M59.742,228.978v2.523c-1.564-1.768-4.645-2.979-7.976-2.979c-8.28,0-13.833,5.957-13.833,13.935
				c0,8.38,5.604,13.983,13.833,13.983c4.342,0,7.017-1.817,8.078-3.13v2.676h6.311v-27.009H59.742z M52.17,250.433
				c-4.444,0-7.473-3.381-7.473-7.976c0-4.493,2.878-7.927,7.473-7.927c4.341,0,7.42,3.383,7.42,7.927
				C59.591,247.052,56.713,250.433,52.17,250.433z"/>
			<path d="M79.024,228.978h4.14v5.704h-4.14v12.57c0,2.021,0.656,2.878,2.574,2.878h1.566v5.756c-0.152,0-1.364,0.354-3.686,0.354
				c-5.099,0-7.219-2.574-7.219-7.068v-14.489h-2.524v-5.704h2.524v-4.241h6.765V228.978z"/>
			<path d="M93.974,245.939c0,2.626,1.061,4.292,3.484,4.292c2.422,0,3.734-1.767,3.734-4.342v-16.912h6.766v27.009h-6.715v-2.02
				c-0.707,0.909-2.473,2.323-5.653,2.323c-6.007,0-8.38-4.039-8.38-9.542v-17.771h6.765V245.939z"/>
			<path d="M124.915,235.943h-1.713c-2.627,0-3.534,1.263-3.534,3.585v16.458h-6.766v-27.009h6.766v2.17
				c0.958-1.362,2.473-2.271,5.247-2.271V235.943z"/>
			<path d="M148.493,228.978v2.523c-1.568-1.768-4.645-2.979-7.979-2.979c-8.278,0-13.831,5.957-13.831,13.935
				c0,8.38,5.604,13.983,13.831,13.983c4.343,0,7.018-1.817,8.079-3.13v2.676h6.311v-27.009H148.493z M140.918,250.433
				c-4.441,0-7.471-3.381-7.471-7.976c0-4.493,2.878-7.927,7.471-7.927c4.342,0,7.422,3.383,7.422,7.927
				C148.34,247.052,145.463,250.433,140.918,250.433z"/>
			<rect x="159.846" y="219.082" width="6.767" height="36.904"/>
			<path d="M191.041,238.67c1.214,0.354,2.323,0.556,3.687,0.959c4.344,1.313,6.462,3.434,6.462,8.33
				c0,5.503-4.542,8.381-9.844,8.381c-7.472,0-9.794-4.393-9.643-9.088h6.463c0,1.919,0.656,3.636,3.281,3.636
				c1.766,0,3.181-0.858,3.181-2.423c0-1.566-0.808-2.272-2.677-2.776c-1.465-0.404-2.627-0.657-4.09-1.213
				c-3.735-1.363-5.604-3.887-5.604-7.977c0-4.543,3.836-7.875,9.237-7.875c5.707,0,9.09,2.877,9.14,8.531h-6.211
				c-0.049-2.069-1.009-3.281-3.078-3.281c-1.616,0-2.676,0.908-2.676,2.271C188.67,237.459,189.428,238.215,191.041,238.67z"/>
			<g>
				<rect x="171.56" y="228.978" width="6.764" height="27.009"/>
				<path d="M170.902,223.171c0-2.271,1.816-4.089,4.04-4.089c2.271,0,4.038,1.817,4.038,4.089c0,2.222-1.767,3.989-4.038,3.989
					C172.719,227.16,170.902,225.393,170.902,223.171z"/>
			</g>
		</g>
	</g>
</g>
</svg>
