<svg xmlns="http://www.w3.org/2000/svg" width="231" height="343" viewBox="0 0 231 343">
  <path fill="#ffffff" d="M1.016 187.986c0 9.354 7.653 17.008 17.008 17.008H73.3c9.354 0 17.008-7.653 17.008-17.008s-7.653-17.008-17.008-17.008H18.023c-9.354 0-17.007 7.654-17.007 17.008zM1.016 145.466c0 9.354 7.653 17.008 17.008 17.008H73.3c9.354 0 17.008-7.653 17.008-17.008s-7.653-17.008-17.008-17.008H18.023c-9.354 0-17.007 7.654-17.007 17.008zM73.3.9c-9.394 0-17.01 7.614-17.01 17.007v27.667L32.29 8.644c-.034-.05-.068-.098-.102-.15l-.138-.202c-.63-.927-1.28-1.71-1.947-2.355-.06-.063-.128-.123-.19-.185-.064-.06-.128-.117-.192-.173C26.668 2.685 22.558.9 18.024.9 8.63.9 1.016 8.515 1.016 17.908v85.04c0 9.392 7.615 17.007 17.008 17.007s17.008-7.615 17.008-17.008V75.282l24.003 36.928c.038.06.077.11.115.168l.11.16c.64.944 1.297 1.737 1.975 2.39.048.05.1.095.147.143.083.078.166.154.25.227 3.046 2.88 7.145 4.656 11.667 4.656 9.392 0 17.007-7.615 17.007-17.008V17.907C90.307 8.514 82.692.9 73.3.9zM12.688 298.57H5.303v-33.187h6.954c5.803 0 9.352 2.734 9.352 8.49 0 3.355-1.536 5.898-4.078 7.193 3.07 1.104 5.084 3.885 5.084 8.105 0 5.997-4.172 9.4-9.928 9.4zm-4.556-30.644v12.23h4.125c4.22 0 6.378-2.35 6.378-6.188 0-3.79-2.062-6.043-6.378-6.043H8.132zm0 14.677v13.428h4.46c4.7 0 7.05-2.78 7.05-6.856 0-3.982-2.254-6.57-7.05-6.57h-4.46zM26.45 267.303c0-1.295 1.006-2.254 2.253-2.254s2.254.958 2.254 2.253-1.007 2.254-2.254 2.254-2.254-.96-2.254-2.254zm3.644 31.268h-2.78v-25.657h2.78v25.658zM46.988 272.48c7.338 0 13.093 5.47 13.093 13.286 0 7.77-5.898 13.236-13.187 13.236-7.338 0-13.045-5.227-13.045-13.236 0-7.96 5.85-13.285 13.14-13.285zm-.048 24.03c5.9 0 10.263-4.413 10.263-10.743 0-6.234-4.316-10.79-10.263-10.79s-10.215 4.507-10.215 10.79c0 6.33 4.268 10.742 10.215 10.742zM86.31 293.585c-1.152 2.254-4.605 5.418-10.024 5.418-7.578 0-13.045-5.322-13.045-13.236 0-7.674 5.612-13.285 13.046-13.285 4.46 0 8.296 2.256 10.023 5.084v-14.052h2.78v35.058h-2.78v-4.987zm-10.024 2.924c5.9 0 10.167-4.413 10.167-10.743 0-6.283-4.268-10.79-10.167-10.79s-10.167 4.507-10.167 10.79c0 6.33 4.267 10.742 10.166 10.742zM94.267 267.303c0-1.295 1.007-2.254 2.254-2.254s2.255.958 2.255 2.253-1.007 2.254-2.254 2.254-2.253-.96-2.253-2.254zm3.644 31.268h-2.78v-25.657h2.78v25.658zM113.21 295.358l8.967-22.445h2.926l-10.455 25.658h-3.02l-10.552-25.657h3.07l9.063 22.445zM128.6 286.534c.336 6.14 4.173 9.975 10.023 9.975 4.845 0 7.626-2.397 9.545-6.378l2.157.96c-1.822 4.507-5.803 7.91-11.702 7.91-7.625 0-12.9-5.32-12.9-13.235 0-7.77 5.228-13.285 12.517-13.285 7.338 0 12.325 4.748 12.518 12.47 0 .337 0 1.056-.048 1.583H128.6zm.096-2.398h19.135c-.238-5.898-4.267-9.16-9.687-9.16-5.13 0-8.872 3.357-9.447 9.16zM164.277 275.647h-.91c-3.694 0-5.517 2.35-5.517 6.33v16.594h-2.78v-25.657h2.78v2.88c.863-1.487 2.83-2.928 6.427-2.88v2.734zM172.332 283.034c1.582.72 3.02.91 4.796 1.63 3.166 1.294 4.987 3.31 4.987 7.05 0 4.46-3.548 7.146-8.104 7.146-5.803 0-8.008-3.742-8.008-8.105h2.733c.096 3.164 1.39 5.707 5.42 5.754 2.733.048 5.18-1.534 5.18-4.605 0-2.732-1.392-3.98-3.454-4.795-1.63-.672-3.356-1.008-4.986-1.775-3.07-1.486-4.125-3.55-4.125-6.234 0-3.93 2.973-6.474 7.29-6.474 5.37 0 7.24 3.55 7.288 7.434h-2.638c-.143-3.164-1.63-5.13-4.7-5.13-2.685 0-4.508 1.437-4.508 4.026 0 2.063.96 3.215 2.83 4.078zM185.52 267.303c0-1.295 1.006-2.254 2.253-2.254s2.254.958 2.254 2.253-1.007 2.254-2.254 2.254-2.254-.96-2.254-2.254zm3.643 31.268h-2.78v-25.657h2.78v25.658zM198.466 272.913h5.468v2.447h-5.468v16.785c0 2.59.336 4.076 3.26 4.076h2.16v2.446c-.625.05-1.632.096-2.446.096-4.7 0-5.755-2.205-5.755-6.14V275.36h-2.782v-2.447h2.782v-3.884h2.78v3.883zM213.23 306.964l3.357-8.393-10.886-25.657h3.117l9.256 22.11 8.682-22.11h3.02l-13.715 34.05h-2.83z"/>
  <g>
    <path fill="#ffffff" d="M32.007 337.312c-1.823 1.87-5.61 4.412-10.887 4.412-9.784 0-16.785-7.098-16.785-17.217s6.954-17.264 16.69-17.264c3.98 0 7.768 1.246 10.454 3.787l-1.68 1.967c-2.35-2.014-5.466-3.164-8.824-3.164-8.25 0-13.716 6.04-13.716 14.674s5.803 14.63 13.908 14.63c4.364 0 7.338-1.968 9.256-3.694l1.583 1.87zM36.478 329.063c.336 6.14 4.172 9.975 10.023 9.975 4.845 0 7.626-2.396 9.545-6.377l2.158.96c-1.822 4.508-5.803 7.912-11.702 7.912-7.624 0-12.9-5.322-12.9-13.236 0-7.77 5.228-13.285 12.517-13.285 7.338 0 12.325 4.75 12.517 12.472 0 .336 0 1.055-.048 1.582H36.478zm.096-2.398H55.71c-.24-5.898-4.27-9.16-9.69-9.16-5.13 0-8.87 3.357-9.446 9.16zM77.19 324.364c0-4.22-1.773-6.715-5.562-6.715-3.836 0-5.85 2.78-5.85 6.952V341.1h-2.782v-25.658h2.78v2.688c.816-1.344 2.88-2.975 6.14-2.975 5.755 0 8.057 3.98 8.057 8.97V341.1H77.19v-16.736zM88.698 315.442h5.467v2.447h-5.467v16.784c0 2.59.335 4.076 3.26 4.076h2.16v2.445c-.625.05-1.63.096-2.447.096-4.7 0-5.754-2.204-5.754-6.138V317.89h-2.782v-2.447h2.782v-3.883h2.782v3.882zM98.72 329.063c.335 6.14 4.17 9.975 10.022 9.975 4.844 0 7.626-2.396 9.544-6.377l2.158.96c-1.822 4.508-5.803 7.912-11.702 7.912-7.625 0-12.9-5.322-12.9-13.236 0-7.77 5.228-13.285 12.518-13.285 7.338 0 12.325 4.75 12.517 12.472 0 .336 0 1.055-.048 1.582H98.72zm.095-2.398h19.136c-.24-5.898-4.27-9.16-9.687-9.16-5.132 0-8.872 3.357-9.448 9.16zM134.396 318.177h-.91c-3.693 0-5.517 2.35-5.517 6.33V341.1h-2.782v-25.657h2.78v2.88c.864-1.487 2.83-2.927 6.428-2.88v2.734z"/>
  </g>
  <g>
    <path fill="#ffffff" d="M12.112 232.965v23.02H5.296v-34.934h7.27l14.995 23.426V221.05h6.815v34.936H27.41M59.742 228.978v2.523c-1.564-1.767-4.645-2.978-7.976-2.978-8.28 0-13.833 5.957-13.833 13.935 0 8.38 5.604 13.983 13.833 13.983 4.342 0 7.017-1.817 8.078-3.13v2.676h6.31v-27.01h-6.412zm-7.572 21.455c-4.444 0-7.473-3.38-7.473-7.976 0-4.493 2.878-7.927 7.473-7.927 4.34 0 7.42 3.383 7.42 7.927 0 4.595-2.877 7.976-7.42 7.976zM79.024 228.978h4.14v5.704h-4.14v12.57c0 2.02.656 2.878 2.574 2.878h1.566v5.756c-.152 0-1.364.354-3.686.354-5.1 0-7.22-2.574-7.22-7.068v-14.49h-2.523v-5.703h2.524v-4.242h6.764v4.24zM93.974 245.94c0 2.625 1.06 4.29 3.484 4.29 2.422 0 3.734-1.766 3.734-4.34v-16.913h6.766v27.01h-6.715v-2.02c-.707.908-2.473 2.322-5.653 2.322-6.007 0-8.38-4.04-8.38-9.543v-17.77h6.765v16.962zM124.915 235.943h-1.713c-2.627 0-3.534 1.263-3.534 3.585v16.458h-6.766v-27.01h6.766v2.17c.958-1.36 2.473-2.27 5.247-2.27v7.067zM148.493 228.978v2.523c-1.568-1.767-4.645-2.978-7.98-2.978-8.277 0-13.83 5.957-13.83 13.935 0 8.38 5.604 13.983 13.83 13.983 4.344 0 7.02-1.817 8.08-3.13v2.676h6.31v-27.01h-6.41zm-7.575 21.455c-4.44 0-7.47-3.38-7.47-7.976 0-4.493 2.877-7.927 7.47-7.927 4.342 0 7.422 3.383 7.422 7.927 0 4.595-2.877 7.976-7.422 7.976zM159.846 219.082h6.767v36.904h-6.767zM191.04 238.67c1.215.354 2.324.556 3.688.96 4.344 1.312 6.462 3.433 6.462 8.33 0 5.502-4.542 8.38-9.844 8.38-7.472 0-9.794-4.393-9.643-9.088h6.463c0 1.92.656 3.636 3.28 3.636 1.767 0 3.182-.858 3.182-2.423 0-1.566-.808-2.272-2.677-2.776-1.464-.405-2.626-.658-4.09-1.214-3.734-1.363-5.603-3.887-5.603-7.977 0-4.544 3.836-7.876 9.237-7.876 5.707 0 9.09 2.877 9.14 8.53h-6.21c-.05-2.068-1.01-3.28-3.08-3.28-1.615 0-2.675.908-2.675 2.27 0 1.315.758 2.07 2.37 2.526zM171.56 228.978h6.764v27.01h-6.764zM170.902 223.17c0-2.27 1.816-4.088 4.04-4.088 2.27 0 4.038 1.817 4.038 4.09 0 2.22-1.767 3.988-4.038 3.988-2.223 0-4.04-1.767-4.04-3.99z"/>
  </g>
</svg>