<svg width="21" height="21" viewBox="0 0 21 21" xmlns="http://www.w3.org/2000/svg">
  <title>
    Search
  </title>
  <path id="svg-search" d="M14.538 8.885c0-1.557-.553-2.888-1.66-3.995-1.105-1.106-2.437-1.66-3.993-1.66-1.557 0-2.888.554-3.995 1.66-1.106 1.107-1.66 2.438-1.66 3.995 0 1.556.554 2.888 1.66 3.994 1.107 1.105 2.438 1.658 3.995 1.658 1.556 0 2.888-.553 3.994-1.66 1.105-1.105 1.658-2.437 1.658-3.993zM21 19.385c0 .437-.16.816-.48 1.135-.32.32-.698.48-1.135.48-.455 0-.833-.16-1.136-.48l-4.33-4.316c-1.506 1.044-3.184 1.565-5.035 1.565-1.204 0-2.354-.234-3.452-.7-1.098-.468-2.044-1.1-2.84-1.894-.795-.795-1.426-1.742-1.893-2.84-.467-1.098-.7-2.248-.7-3.45C0 7.68.233 6.53.7 5.432c.467-1.098 1.098-2.044 1.893-2.84C3.39 1.798 4.335 1.167 5.433.7 6.53.233 7.68 0 8.885 0c1.203 0 2.353.233 3.45.7 1.1.467 2.046 1.098 2.84 1.893.796.796 1.427 1.742 1.894 2.84.466 1.098.7 2.248.7 3.452 0 1.85-.522 3.53-1.566 5.035l4.33 4.33c.31.31.466.69.466 1.135z" fill="#fff" fill-rule="evenodd"></path>
</svg>